<svg width="17" height="17" viewBox="0 0 17 17" fill="none" xmlns="http://www.w3.org/2000/svg">
<path d="M8.49968 14.8333C10.1794 14.8333 11.7903 14.166 12.978 12.9783C14.1657 11.7905 14.833 10.1796 14.833 8.49992C14.833 6.82021 14.1657 5.20931 12.978 4.02158C11.7903 2.83385 10.1794 2.16659 8.49968 2.16659C6.81997 2.16659 5.20906 2.83385 4.02133 4.02158C2.8336 5.20931 2.16634 6.82021 2.16634 8.49992C2.16634 10.1796 2.8336 11.7905 4.02133 12.9783C5.20906 14.166 6.81997 14.8333 8.49968 14.8333ZM8.49968 16.4166C4.1273 16.4166 0.583008 12.8723 0.583008 8.49992C0.583008 4.12754 4.1273 0.583252 8.49968 0.583252C12.8721 0.583252 16.4163 4.12754 16.4163 8.49992C16.4163 12.8723 12.8721 16.4166 8.49968 16.4166ZM6.03759 9.42617L4.06001 8.80946C3.63251 8.67884 3.63013 8.38434 4.1558 8.17296L11.8611 5.19629C12.3084 5.01421 12.5617 5.24459 12.4168 5.82171L11.1051 12.0125C11.0132 12.4535 10.748 12.5588 10.3799 12.3553L8.36034 10.8607L7.41905 11.7695C7.32247 11.8629 7.24409 11.9429 7.09526 11.9627C6.94722 11.9833 6.8253 11.9389 6.73584 11.6935L6.04709 9.42063L6.03759 9.42617Z" fill="#E0BEA2"/>
</svg>
